# xmcd
#
# Track frame offsets:
#	150
#	9549
#	14769
#	18692
#	28455
#	41082
#	50650
#	54957
#	62490
#
# Disc length: 1027 seconds
#
# Revision: 1
# Processed by: cddbd v1.5.1PL0 Copyright (c) Steve Scherf et al.
# Submitted via: dBpowerAMP V4.0
#
DISCID=7a040109
DTITLE=Harry Gregson-Williams - Shrek 2 - Original Score
DYEAR=2004
DGENRE=Soundtrack
TTITLE0=Prince Charming
TTITLE1=The Ball
TTITLE2=Far Far Away
TTITLE3=Family Dinner
TTITLE4=Not Meant To Be
TTITLE5=Get The Wand
TTITLE6=New Clothes
TTITLE7=The Factory
TTITLE8=The Frog and The Truth Are Revealed
EXTD=
EXTT0=
EXTT1=
EXTT2=
EXTT3=
EXTT4=
EXTT5=
EXTT6=
EXTT7=
EXTT8=
PLAYORDER=
